<svg width="6" height="17" viewBox="0 0 6 17" fill="none" xmlns="http://www.w3.org/2000/svg">
<path d="M4.59958 0C4.22816 0 3.87196 0.158035 3.60933 0.43934C3.3467 0.720644 3.19916 1.10218 3.19916 1.5C3.19916 1.89782 3.3467 2.27936 3.60933 2.56066C3.87196 2.84196 4.22816 3 4.59958 3C4.97099 3 5.3272 2.84196 5.58983 2.56066C5.85246 2.27936 6 1.89782 6 1.5C6 1.10218 5.85246 0.720644 5.58983 0.43934C5.3272 0.158035 4.97099 0 4.59958 0ZM4.26348 4.77C3.15248 4.87 0.118233 7.46 0.118233 7.46C-0.0684899 7.61 -0.0124726 7.6 0.136906 7.88C0.286284 8.15 0.267611 8.17 0.444998 8.04C0.631721 7.91 0.939813 7.7 1.4533 7.36C3.43256 6 1.77073 9.14 0.921141 14.43C0.58504 17.05 2.78837 15.7 3.35787 15.3C3.91804 14.91 5.42116 13.8 5.57054 13.69C5.77593 13.54 5.62655 13.42 5.46784 13.17C5.35581 13 5.24377 13.12 5.24377 13.12C4.63692 13.55 3.52592 14.45 3.37654 13.88C3.19916 13.31 4.33817 9.4 4.96369 6.71C5.06639 6.07 5.34647 4.67 4.26348 4.77Z" fill="black"/>
</svg>
