<svg width="32" height="30" viewBox="0 0 32 30" fill="none" xmlns="http://www.w3.org/2000/svg">
<path d="M29.9111 0L27.8402 3.35444L27.365 3.2037C25.5336 2.6221 22.5394 2.73099 20.7802 3.21097L20.3144 3.33817L18.3795 0.128854C16.1105 4.70744 16.2027 7.90109 17.3816 9.95151C18.6439 12.147 21.2528 13.197 24.0688 13.1629C27.3574 13.1228 30.0713 11.8628 31.2903 9.57996C32.4317 7.4424 32.3484 4.26078 29.911 6.60766e-05L29.9111 0ZM20.4976 6.65003C21.7424 6.65664 22.4785 7.66407 22.6203 9.07267C20.1165 10.2568 18.9795 9.29732 18.4931 7.31771C19.261 6.85075 19.9318 6.64706 20.4975 6.64997L20.4976 6.65003ZM27.8692 6.65003C28.4349 6.64706 29.1057 6.85075 29.8736 7.31777C29.3872 9.29732 28.2501 10.2568 25.7463 9.07267C25.8883 7.66407 26.6244 6.65658 27.8691 6.65003H27.8692ZM8.06373 10.0191C7.98101 10.0185 7.8987 10.0189 7.81679 10.0203C5.78095 10.0558 4.02901 10.7205 2.70657 11.7772C-0.224514 14.1196 -1.15733 18.4382 1.84136 22.7647C3.21048 25.0122 4.83909 26.3506 6.61789 27.0082C8.83421 27.8277 11.115 27.5916 13.3606 27.2802C15.6062 26.9688 17.8037 26.5775 19.898 26.7236C21.9922 26.8698 24.0871 27.3966 26.0042 29.4451C27.3113 30.8417 29.1676 29.3375 27.6113 27.8481C25.2483 25.5866 22.718 24.713 20.2319 24.5398C17.7457 24.3666 15.3607 24.8504 13.2012 25.1499C11.0418 25.4494 9.13478 25.583 7.49625 24.9773C6.52539 24.6183 5.58637 23.9987 4.69296 22.9184H28.4244C29.3469 19.4612 29.4275 15.8861 28.5508 13.5256C27.2173 14.0869 25.6893 14.3785 24.0844 14.3981H24.0843C22.0704 14.4226 20.0728 13.9403 18.4907 12.8892C18.1649 13.0963 17.8434 13.3097 17.5265 13.5295L17.1396 13.7978L16.7692 13.5081C13.6232 11.0487 10.6277 10.0385 8.0638 10.0191L8.06373 10.0191Z" fill="black"/>
</svg>
