<svg width="15" height="18" viewBox="0 0 15 18" fill="none" xmlns="http://www.w3.org/2000/svg">
<path d="M7.5 9.87097C12.675 9.87097 15 11.1135 15 13.3548V18H0V13.3548C0 11.1135 2.325 9.87097 7.5 9.87097ZM13.75 13.3548C13.75 11.7523 11.9875 11.0323 7.5 11.0323C3.0125 11.0323 1.25 11.7523 1.25 13.3548V16.8387H13.75V13.3548ZM7.5 0C8.66032 0 9.77312 0.428225 10.5936 1.19047C11.4141 1.95271 11.875 2.98654 11.875 4.06452C11.875 5.14249 11.4141 6.17632 10.5936 6.93856C9.77312 7.70081 8.66032 8.12903 7.5 8.12903C6.33968 8.12903 5.22688 7.70081 4.40641 6.93856C3.58594 6.17632 3.125 5.14249 3.125 4.06452C3.125 2.98654 3.58594 1.95271 4.40641 1.19047C5.22688 0.428225 6.33968 0 7.5 0ZM7.5 1.16129C6.6712 1.16129 5.87634 1.46716 5.29029 2.01163C4.70424 2.55609 4.375 3.29453 4.375 4.06452C4.375 4.8345 4.70424 5.57295 5.29029 6.11741C5.87634 6.66187 6.6712 6.96774 7.5 6.96774C8.3288 6.96774 9.12366 6.66187 9.70971 6.11741C10.2958 5.57295 10.625 4.8345 10.625 4.06452C10.625 3.29453 10.2958 2.55609 9.70971 2.01163C9.12366 1.46716 8.3288 1.16129 7.5 1.16129Z" fill="black"/>
</svg>
