<svg width="127" height="101" viewBox="0 0 127 101" fill="none" xmlns="http://www.w3.org/2000/svg">
<path d="M103.281 97.8633C101.48 97.8633 65.4688 97.8633 63.8933 97.8633C62.3178 97.8633 60.9598 92.1736 61.5 88.5C62.1752 83.908 70 84.5 71 83C71.896 81.656 71.5457 77.5 71.5457 72.5C71.5457 67.5 67 60.5 66.0315 56.4236C65.1245 52.6063 65.4688 42 65.4688 40.1837C65.4688 39.933 57.4788 37.2718 54.8904 35.7038C52.3021 34.1358 51.4018 28.7598 51.4018 28.1998C51.4018 27.6398 58.2665 23.7199 59.5044 22.5999C60.7423 21.4799 64.5685 15.7679 65.4688 14.9839C66.189 14.3567 69.5951 12.9306 71.2081 12.8559C71.2081 12.8559 79.8734 3 80.211 3C80.5486 3 88.4261 12.0719 89.2138 17.4479C89.9691 22.6025 90.2266 33.1278 90.5642 34.9198C90.9019 36.7118 105.081 56.4236 105.081 56.4236C109.245 63.0316 110.887 71.8321 111 79C111.09 84.7344 105.081 97.8633 103.281 97.8633ZM103.281 97.8633C106.994 98.2366 113.409 97.8633 115.66 96.5193C118.269 94.9614 121.286 91.7034 123.312 86.2154C125.194 81.1158 122.975 72.9995 120.949 66.8395C118.923 60.6796 114.79 52.6156 116.222 48.0237C117.445 44.1037 119.559 42.9411 121.962 40.7437M121.962 40.7437C122.481 40.269 123.587 39.402 123.987 39.0637C124.107 38.9166 123.365 39.405 121.962 40.7437ZM4.02431 15.0959C5.24889 15.1706 15.4579 14.6479 17.5286 15.0959C20.1169 15.6559 30.3577 20.0239 31.8206 21.7039C33.2836 23.3839 38.4602 27.3038 38.7978 28.5358C39.1354 29.7678 38.6853 31.2238 37.6725 32.2318C36.6597 33.2398 34.9716 33.6878 33.3961 33.3518C31.8206 33.0158 23.8306 26.7438 23.6055 27.6398C23.3805 28.5358 24.1682 30.7758 25.8562 33.3518C27.5443 35.9278 30.0201 40.0717 32.7209 41.6397C35.4218 43.2077 45.8876 44.9997 47.1255 46.1197C48.3634 47.2397 49.4887 49.4797 48.926 50.3757C48.3634 51.2717 47.9132 53.0636 45.6625 53.2876C43.4118 53.5116 33.3961 50.2497 31.3705 49.9277C29.3448 49.6056 22.2551 44.1037 22.2551 44.1037C18.2788 41.0797 10.5243 35.5 9.08842 34.8078C7.65255 34.1156 5.52433 32.8518 4.02431 32.5C2.5243 32.1482 2.79974 15.0213 4.02431 15.0959Z" stroke="white" stroke-width="5"/>
</svg>
