<svg width="60" height="60" viewBox="0 0 60 60" fill="none" xmlns="http://www.w3.org/2000/svg">
<path d="M40 55V18.75H42.5C44.1576 18.75 45.7473 18.0915 46.9194 16.9194C48.0915 15.7473 48.75 14.1576 48.75 12.5V8.75H35C33.3424 8.75 31.7527 8.09152 30.5806 6.91942C29.4085 5.74731 28.75 4.1576 28.75 2.5V12.235C28.7502 15.008 28.0657 17.7381 26.7574 20.1829C25.449 22.6278 23.5572 24.7118 21.25 26.25C18.9428 27.7882 17.051 29.8722 15.7426 32.3171C14.4343 34.7619 13.7498 37.4921 13.75 40.265V53.75H12.5C10.8424 53.75 9.25269 53.0915 8.08058 51.9194C6.90848 50.7473 6.25 49.1576 6.25 47.5V37.5M20 38.75H26.25V40C26.25 43.75 26.25 46.25 28.125 50C28.125 50 30 53.75 32.5 53.75" stroke="black" stroke-width="2"/>
</svg>
