<svg width="100" height="100" viewBox="0 0 100 100" fill="none" xmlns="http://www.w3.org/2000/svg">
<path d="M28.46 69.6101C28.46 69.6101 25.8 71.1901 23.25 69.8201C20.7 68.4501 19.21 64.6901 19.04 61.4601C18.96 59.9101 18.69 54.8601 19.7 49.9901C20.79 44.7001 23.14 39.7701 24.85 37.3301C29.18 31.1601 34.76 29.1801 38.72 28.3701C40.77 27.9501 45.52 27.5401 50.19 27.5201C54.53 27.5001 59.99 27.62 62.5 28.37C67.71 29.92 71.7095 31.5301 74.5 35.5C77.2905 39.4699 77.93 41.5601 79.2 45.3701C80.35 48.8201 80.76 52.9101 80.97 54.6501C81.4 58.3101 80.88 65.9801 79.65 67.5601C78.42 69.1401 76.11 70.0201 74.82 70.4101C73.53 70.8001 71.62 70.0001 71.62 70.0001" stroke="black" stroke-width="3" stroke-miterlimit="10"/>
<path d="M29.36 42.17C29.36 42.17 26.73 48.72 26.73 54.77C26.73 56.76 26.68 59.15 26.85 61.43C27.19 65.99 28.15 70.69 30.3 73.75C31.92 76.05 34.3 79.08 37.57 81.04C40.84 83 45.11 84.04 50 84.04C55.84 84.04 59.24 82.76 62.47 80.87C64.63 79.6 67.05 78.11 68.62 75.72C72.53 69.76 73.02 66.25 73.28 58.42C73.54 50.59 71.26 42.91 70.83 41.89" stroke="black" stroke-width="3" stroke-miterlimit="10"/>
<path d="M36.47 63.81C36.47 63.81 36.24 70.24 38.96 71.85C40.02 72.48 41.34 73.12 42.96 73.17C45.5 73.25 48.05 71.92 48.85 69.91C50.51 65.78 50.16 63.6 50.22 62.84C50.28 62.08 50.59 70.12 51.53 70.79C52.47 71.46 53.08 73.18 56.91 73.18C59.13 73.18 61.3 71.91 62.48 69.71C63.34 68.11 63.3 65.55 63.27 63.37" stroke="black" stroke-width="3" stroke-miterlimit="10"/>
<path d="M54.39 61.99C54.44 63.42 52.35 64.57 50.01 64.57C47.67 64.57 45.96 63.41 45.9 61.99C45.83 60.13 54.32 60.13 54.39 61.99Z" fill="black" stroke="black" stroke-width="3" stroke-miterlimit="10"/>
<path d="M39.41 53.98C41.0393 53.98 42.36 52.7801 42.36 51.3C42.36 49.8199 41.0393 48.62 39.41 48.62C37.7808 48.62 36.46 49.8199 36.46 51.3C36.46 52.7801 37.7808 53.98 39.41 53.98Z" fill="black" stroke="black" stroke-width="3" stroke-miterlimit="10"/>
<path d="M60.92 53.98C62.5492 53.98 63.87 52.7801 63.87 51.3C63.87 49.8199 62.5492 48.62 60.92 48.62C59.2907 48.62 57.97 49.8199 57.97 51.3C57.97 52.7801 59.2907 53.98 60.92 53.98Z" fill="black" stroke="black" stroke-width="3" stroke-miterlimit="10"/>
<path d="M71.2363 43.2087C71.3 43.1907 71.2576 42.8444 71.1416 42.4353C71.0255 42.0262 70.8798 41.7092 70.816 41.7273C70.7522 41.7453 70.7946 42.0917 70.9107 42.5008C71.0267 42.9098 71.1725 43.2268 71.2363 43.2087Z" stroke="black" stroke-width="3" stroke-miterlimit="10"/>
<path d="M29.2895 42.5098C29.4286 42.1079 29.4906 41.7646 29.428 41.7429C29.3654 41.7212 29.2018 42.0294 29.0627 42.4313C28.9236 42.8332 28.8616 43.1765 28.9243 43.1982C28.9869 43.2199 29.1504 42.9117 29.2895 42.5098Z" stroke="black" stroke-width="3" stroke-miterlimit="10"/>
<path d="M29.5 41.5L28.5 44.5M28.5 44.5V42L29 41.5L30 42V42.5L28.5 44.5Z" stroke="black"/>
<path d="M36.4975 65.3156C36.5637 65.3124 36.6007 64.9655 36.5802 64.5407C36.5597 64.116 36.4895 63.7742 36.4233 63.7774C36.3571 63.7806 36.32 64.1275 36.3405 64.5523C36.361 64.977 36.4313 65.3188 36.4975 65.3156Z" stroke="black" stroke-width="3" stroke-miterlimit="10"/>
<path d="M63.4116 64.0484C63.4206 63.6233 63.3741 63.2775 63.3078 63.2761C63.2416 63.2747 63.1806 63.6182 63.1717 64.0434C63.1628 64.4686 63.2092 64.8144 63.2755 64.8158C63.3418 64.8171 63.4027 64.4736 63.4116 64.0484Z" stroke="black" stroke-width="3" stroke-miterlimit="10"/>
<path d="M70 42.5L71 41.5L71.5 42.5" stroke="black"/>
<path d="M62.5 63.5H64" stroke="black"/>
</svg>
