<svg width="60" height="60" viewBox="0 0 60 60" fill="none" xmlns="http://www.w3.org/2000/svg">
<path d="M15 5C13.6739 5 12.4021 5.52678 11.4645 6.46447C10.5268 7.40215 10 8.67392 10 10V50C10 51.3261 10.5268 52.5978 11.4645 53.5355C12.4021 54.4732 13.6739 55 15 55H45C46.3261 55 47.5979 54.4732 48.5355 53.5355C49.4732 52.5978 50 51.3261 50 50V10C50 8.67392 49.4732 7.40215 48.5355 6.46447C47.5979 5.52678 46.3261 5 45 5H15ZM30 12.5C33.3152 12.5 36.4946 13.817 38.8388 16.1612C41.183 18.5054 42.5 21.6848 42.5 25C42.5 28.3152 41.183 31.4946 38.8388 33.8388C36.4946 36.183 33.3152 37.5 30 37.5C26.6848 37.5 23.5054 36.183 21.1612 33.8388C18.817 31.4946 17.5 28.3152 17.5 25C17.5 21.6848 18.817 18.5054 21.1612 16.1612C23.5054 13.817 26.6848 12.5 30 12.5ZM30 15C28.975 16.55 28.125 18.225 27.6 20H32.4C31.862 18.2198 31.0525 16.5333 30 15ZM26.75 15.55C24.45 16.325 22.5 17.925 21.35 20H25C25.45 18.45 26 16.95 26.75 15.55ZM33.225 15.55C33.975 16.95 34.55 18.45 35 20H38.65C37.5 17.925 35.525 16.35 33.225 15.55ZM20.325 22.5C20.125 23.3 20 24.125 20 25C20 25.875 20.125 26.7 20.325 27.5H24.55C24.45 26.675 24.375 25.85 24.375 25C24.375 24.15 24.45 23.325 24.55 22.5H20.325ZM27.075 22.5C26.95 23.3 26.875 24.15 26.875 25C26.875 25.85 26.95 26.675 27.075 27.5H32.925C33.025 26.675 33.125 25.85 33.125 25C33.125 24.15 33.025 23.3 32.925 22.5H27.075ZM35.45 22.5C35.55 23.325 35.625 24.15 35.625 25C35.625 25.85 35.55 26.675 35.45 27.5H39.675C39.875 26.7 40 25.875 40 25C40 24.125 39.875 23.3 39.675 22.5H35.45ZM21.35 30C22.5 32.075 24.45 33.65 26.75 34.45C26 33.05 25.45 31.575 25 30H21.35ZM27.6 30C28.125 31.8 28.975 33.45 30 35C31.05 33.45 31.875 31.8 32.4 30H27.6ZM35 30C34.55 31.575 33.975 33.05 33.225 34.45C35.525 33.65 37.5 32.075 38.65 30H35ZM17.5 42.5H42.5V47.5H17.5V42.5Z" fill="black"/>
</svg>
