<svg width="56" height="52" viewBox="0 0 56 52" fill="none" xmlns="http://www.w3.org/2000/svg">
<path d="M45.5162 24.9519C46.5066 24.9519 47.3096 24.1489 47.3096 23.1585C47.3096 22.168 46.5066 21.3651 45.5162 21.3651C44.5257 21.3651 43.7228 22.168 43.7228 23.1585C43.7228 24.1489 44.5257 24.9519 45.5162 24.9519Z" fill="black"/>
<path d="M51.2551 29.9016C52.2455 29.9016 53.0485 29.0987 53.0485 28.1082C53.0485 27.1178 52.2455 26.3148 51.2551 26.3148C50.2646 26.3148 49.4617 27.1178 49.4617 28.1082C49.4617 29.0987 50.2646 29.9016 51.2551 29.9016Z" fill="black"/>
<path d="M53.0485 37.0115C54.0389 37.0115 54.8419 36.2085 54.8419 35.2181C54.8419 34.2276 54.0389 33.4247 53.0485 33.4247C52.058 33.4247 51.2551 34.2276 51.2551 35.2181C51.2551 36.2085 52.058 37.0115 53.0485 37.0115Z" fill="black"/>
<path d="M50.9043 43.8822C51.8948 43.8822 52.6977 43.0793 52.6977 42.0888C52.6977 41.0983 51.8948 40.2954 50.9043 40.2954C49.9139 40.2954 49.1109 41.0983 49.1109 42.0888C49.1109 43.0793 49.9139 43.8822 50.9043 43.8822Z" fill="black"/>
<path d="M45.5162 49.1747C46.5066 49.1747 47.3096 48.3718 47.3096 47.3813C47.3096 46.3909 46.5066 45.5879 45.5162 45.5879C44.5257 45.5879 43.7228 46.3909 43.7228 47.3813C43.7228 48.3718 44.5257 49.1747 45.5162 49.1747Z" fill="black"/>
<path d="M37.7846 51C38.7751 51 39.578 50.1971 39.578 49.2066C39.578 48.2161 38.7751 47.4132 37.7846 47.4132C36.7942 47.4132 35.9912 48.2161 35.9912 49.2066C35.9912 50.1971 36.7942 51 37.7846 51Z" fill="black"/>
<path d="M30.2523 49.2066C31.2428 49.2066 32.0457 48.4037 32.0457 47.4132C32.0457 46.4227 31.2428 45.6198 30.2523 45.6198C29.2619 45.6198 28.4589 46.4227 28.4589 47.4132C28.4589 48.4037 29.2619 49.2066 30.2523 49.2066Z" fill="black"/>
<path d="M24.7606 44.1851C25.751 44.1851 26.554 43.3821 26.554 42.3917C26.554 41.4012 25.751 40.5983 24.7606 40.5983C23.7701 40.5983 22.9672 41.4012 22.9672 42.3917C22.9672 43.3821 23.7701 44.1851 24.7606 44.1851Z" fill="black"/>
<path d="M5.67878 6.80265C6.5592 6.80265 7.27291 6.08893 7.27291 5.20851C7.27291 4.3281 6.5592 3.61438 5.67878 3.61438C4.79837 3.61438 4.08465 4.3281 4.08465 5.20851C4.08465 6.08893 4.79837 6.80265 5.67878 6.80265Z" fill="black"/>
<path d="M12.8205 4.18827C13.7009 4.18827 14.4146 3.47455 14.4146 2.59413C14.4146 1.71372 13.7009 1 12.8205 1C11.9401 1 11.2264 1.71372 11.2264 2.59413C11.2264 3.47455 11.9401 4.18827 12.8205 4.18827Z" fill="black"/>
<path d="M19.7869 7.03379C20.6673 7.03379 21.381 6.32008 21.381 5.43966C21.381 4.55925 20.6673 3.84553 19.7869 3.84553C18.9064 3.84553 18.1927 4.55925 18.1927 5.43966C18.1927 6.32008 18.9064 7.03379 19.7869 7.03379Z" fill="black"/>
<path d="M22.4331 13.785C23.3135 13.785 24.0273 13.0712 24.0273 12.1908C24.0273 11.3104 23.3135 10.5967 22.4331 10.5967C21.5527 10.5967 20.839 11.3104 20.839 12.1908C20.839 13.0712 21.5527 13.785 22.4331 13.785Z" fill="black"/>
<path d="M19.4122 19.9861C20.2927 19.9861 21.0064 19.2724 21.0064 18.392C21.0064 17.5116 20.2927 16.7979 19.4122 16.7979C18.5318 16.7979 17.8181 17.5116 17.8181 18.392C17.8181 19.2724 18.5318 19.9861 19.4122 19.9861Z" fill="black"/>
<path d="M12.8205 22.9592C13.7009 22.9592 14.4146 22.2455 14.4146 21.3651C14.4146 20.4846 13.7009 19.7709 12.8205 19.7709C11.9401 19.7709 11.2264 20.4846 11.2264 21.3651C11.2264 22.2455 11.9401 22.9592 12.8205 22.9592Z" fill="black"/>
<path d="M5.67878 19.9861C6.5592 19.9861 7.27291 19.2724 7.27291 18.392C7.27291 17.5116 6.5592 16.7979 5.67878 16.7979C4.79837 16.7979 4.08465 17.5116 4.08465 18.392C4.08465 19.2724 4.79837 19.9861 5.67878 19.9861Z" fill="black"/>
<path d="M2.59413 13.5139C3.47455 13.5139 4.18827 12.8002 4.18827 11.9198C4.18827 11.0394 3.47455 10.3257 2.59413 10.3257C1.71372 10.3257 1 11.0394 1 11.9198C1 12.8002 1.71372 13.5139 2.59413 13.5139Z" fill="black"/>
<path d="M36.2543 6.62729L48.4653 18.0253M54.6745 9.47282L46.6321 2.04416M31.9581 15.9609L35.0746 19.0695M26.6655 20.839L29.6147 23.7802M21.2295 25.8446L24.2903 28.9053M17.3319 32.3965L11.5611 39.4585V41.1562M11.5611 41.1562H14.4465L20.7354 35.8478L17.6029 32.6754M11.5611 41.1562L2.06807 50.45M40.2715 26.3148C41.2598 26.5221 44.472 27.3191 46.4248 30.2842C47.1103 31.3204 47.3893 32.245 47.4929 32.6276C48.3059 35.6565 47.1502 38.9723 45.3568 41.0765C42.3598 44.5916 36.4376 46.0582 32.3327 43.3163C30.2205 41.9055 28.8734 39.4585 28.4191 37.0115M29.2959 39.6657L24.7606 42.3917M32.524 43.4279L30.2523 47.3813M37.7846 44.7351V49.2066M42.7663 43.2127L45.5162 47.3813M46.3531 39.6657L50.9044 42.0888M47.7639 35.2181H53.0485M46.6639 30.6509L50.9043 28.2517M42.7663 27.1597L45.5162 23.1585M8.34098 12.3263C8.34098 14.8003 10.3465 16.8058 12.8205 16.8058C15.2945 16.8058 17.3 14.8003 17.3 12.3263C17.3 9.85235 15.2945 7.8468 12.8205 7.8468M8.34098 12.3263C8.34098 9.85235 10.3465 7.8468 12.8205 7.8468M8.34098 12.3263L3.01658 12.0553M12.8205 7.8468V3.03252M15.8015 8.98661L19.5717 5.75849M17.292 12.3263H22.2817M15.8015 15.6581L19.5717 18.6311M12.8205 16.7979V20.839M9.37717 15.1878L5.79834 18.0253M9.37717 8.73155L5.79834 5.75849M22.3136 37.4578L46.0263 15.7856L39.0041 9.47282L15.8015 30.8422L22.3136 37.4578ZM41.0446 11.0988L44.3365 14.2233L52.0442 7.04974L48.8001 4.04479L41.0446 11.0988ZM47.3096 23.1585C47.3096 24.1489 46.5066 24.9519 45.5162 24.9519C44.5257 24.9519 43.7228 24.1489 43.7228 23.1585C43.7228 22.168 44.5257 21.3651 45.5162 21.3651C46.5066 21.3651 47.3096 22.168 47.3096 23.1585ZM53.0485 28.1082C53.0485 29.0987 52.2455 29.9016 51.2551 29.9016C50.2646 29.9016 49.4617 29.0987 49.4617 28.1082C49.4617 27.1178 50.2646 26.3148 51.2551 26.3148C52.2455 26.3148 53.0485 27.1178 53.0485 28.1082ZM54.8419 35.2181C54.8419 36.2085 54.0389 37.0115 53.0485 37.0115C52.058 37.0115 51.2551 36.2085 51.2551 35.2181C51.2551 34.2276 52.058 33.4247 53.0485 33.4247C54.0389 33.4247 54.8419 34.2276 54.8419 35.2181ZM52.6977 42.0888C52.6977 43.0793 51.8948 43.8822 50.9043 43.8822C49.9139 43.8822 49.1109 43.0793 49.1109 42.0888C49.1109 41.0983 49.9139 40.2954 50.9043 40.2954C51.8948 40.2954 52.6977 41.0983 52.6977 42.0888ZM47.3096 47.3813C47.3096 48.3718 46.5066 49.1747 45.5162 49.1747C44.5257 49.1747 43.7228 48.3718 43.7228 47.3813C43.7228 46.3909 44.5257 45.5879 45.5162 45.5879C46.5066 45.5879 47.3096 46.3909 47.3096 47.3813ZM39.578 49.2066C39.578 50.1971 38.7751 51 37.7846 51C36.7942 51 35.9912 50.1971 35.9912 49.2066C35.9912 48.2161 36.7942 47.4132 37.7846 47.4132C38.7751 47.4132 39.578 48.2161 39.578 49.2066ZM32.0457 47.4132C32.0457 48.4037 31.2428 49.2066 30.2523 49.2066C29.2619 49.2066 28.4589 48.4037 28.4589 47.4132C28.4589 46.4227 29.2619 45.6198 30.2523 45.6198C31.2428 45.6198 32.0457 46.4227 32.0457 47.4132ZM26.554 42.3917C26.554 43.3821 25.751 44.1851 24.7606 44.1851C23.7701 44.1851 22.9672 43.3821 22.9672 42.3917C22.9672 41.4012 23.7701 40.5983 24.7606 40.5983C25.751 40.5983 26.554 41.4012 26.554 42.3917ZM7.27291 5.20851C7.27291 6.08893 6.5592 6.80265 5.67878 6.80265C4.79837 6.80265 4.08465 6.08893 4.08465 5.20851C4.08465 4.3281 4.79837 3.61438 5.67878 3.61438C6.5592 3.61438 7.27291 4.3281 7.27291 5.20851ZM14.4146 2.59413C14.4146 3.47455 13.7009 4.18827 12.8205 4.18827C11.9401 4.18827 11.2264 3.47455 11.2264 2.59413C11.2264 1.71372 11.9401 1 12.8205 1C13.7009 1 14.4146 1.71372 14.4146 2.59413ZM21.381 5.43966C21.381 6.32008 20.6673 7.03379 19.7869 7.03379C18.9064 7.03379 18.1927 6.32008 18.1927 5.43966C18.1927 4.55925 18.9064 3.84553 19.7869 3.84553C20.6673 3.84553 21.381 4.55925 21.381 5.43966ZM24.0273 12.1908C24.0273 13.0712 23.3135 13.785 22.4331 13.785C21.5527 13.785 20.839 13.0712 20.839 12.1908C20.839 11.3104 21.5527 10.5967 22.4331 10.5967C23.3135 10.5967 24.0273 11.3104 24.0273 12.1908ZM21.0064 18.392C21.0064 19.2724 20.2927 19.9861 19.4122 19.9861C18.5318 19.9861 17.8181 19.2724 17.8181 18.392C17.8181 17.5116 18.5318 16.7979 19.4122 16.7979C20.2927 16.7979 21.0064 17.5116 21.0064 18.392ZM14.4146 21.3651C14.4146 22.2455 13.7009 22.9592 12.8205 22.9592C11.9401 22.9592 11.2264 22.2455 11.2264 21.3651C11.2264 20.4846 11.9401 19.7709 12.8205 19.7709C13.7009 19.7709 14.4146 20.4846 14.4146 21.3651ZM7.27291 18.392C7.27291 19.2724 6.5592 19.9861 5.67878 19.9861C4.79837 19.9861 4.08465 19.2724 4.08465 18.392C4.08465 17.5116 4.79837 16.7979 5.67878 16.7979C6.5592 16.7979 7.27291 17.5116 7.27291 18.392ZM4.18827 11.9198C4.18827 12.8002 3.47455 13.5139 2.59413 13.5139C1.71372 13.5139 1 12.8002 1 11.9198C1 11.0394 1.71372 10.3257 2.59413 10.3257C3.47455 10.3257 4.18827 11.0394 4.18827 11.9198Z" stroke="black" stroke-miterlimit="10"/>
</svg>
